<svg viewBox="0 0 620 176" xmlns="http://www.w3.org/2000/svg"><g transform="translate(8 8) scale(.45)">
<defs>
  <linearGradient id="gold" x1="0" y1="0" x2="1" y2="1"><stop stop-color="#DDB54A"/><stop offset="1" stop-color="#9D7018"/></linearGradient>
</defs>
<!-- rounded speech-bubble field -->
<path d="M128 18C66 18 22 63 22 122c0 47 29 86 75 102l-11 22 33-17c4 .3 7 .5 11 .5 61 0 108-44 108-105C238 64 190 18 128 18Z" fill="#003382"/>
<!-- peak -->
<path d="M128 43 184 132l-33-16-23-39-32 51-28 11 60-96Z" fill="url(#gold)"/>
<path d="M128 61l16 31-16-16-17 28 17-43Z" fill="#FFF" opacity=".36"/>
<!-- conversation capsule -->
<path d="M66 146h124c15 0 26 11 26 25s-11 25-26 25h-65l-27 15 8-15H66c-15 0-26-11-26-25s11-25 26-25Z" fill="#FFFFFF"/>
<!-- three conversation dots -->
<circle cx="104" cy="171" r="6.5" fill="#003382"/><circle cx="128" cy="171" r="6.5" fill="#003382"/><circle cx="152" cy="171" r="6.5" fill="#003382"/>
</g><text x="140" y="106" font-family="Inter,Arial,sans-serif" font-size="88" font-weight="800" letter-spacing="-5" fill="#003382">Conversa</text><text x="144" y="151" font-family="Inter,Arial,sans-serif" font-size="28" font-weight="500" fill="#475569">by <tspan font-weight="750" fill="#003382">Plot Twist Co.</tspan></text></svg>